<svg width="230" height="232" viewBox="0 0 230 232" fill="none" xmlns="http://www.w3.org/2000/svg">
<path d="M41.4889 134.301C41.4889 186.097 83.4782 228.086 135.273 228.086C187.07 228.086 229.061 186.097 229.061 134.301C229.061 82.5044 187.07 40.5151 135.273 40.5151C83.4782 40.5151 41.4889 82.5044 41.4889 134.301Z" fill="white"/>
<path d="M135.273 227.086C84.0305 227.086 42.4889 185.545 42.4889 134.301C42.4889 83.0567 84.0305 41.5151 135.273 41.5151C186.517 41.5151 228.061 83.0567 228.061 134.301C228.061 185.545 186.517 227.086 135.273 227.086Z" stroke="#2773D9" stroke-opacity="0.6" stroke-width="2"/>
<path d="M153.127 72.6963C143.607 92.4345 127.262 80.6634 123.508 72.6946C130.956 72.6928 128.568 57.5968 127.499 50.0491H149.498C149.083 61.6747 151.744 69.9916 153.127 72.6963Z" fill="#FCC4AC"/>
<path d="M153.127 72.6963C143.607 92.4345 127.262 80.6634 123.508 72.6946C130.956 72.6928 128.568 57.5968 127.499 50.0491H149.498C149.083 61.6747 151.744 69.9916 153.127 72.6963Z" fill="url(#paint0_linear_5_1475)"/>
<path d="M103.07 82.4178C102.958 114.686 94.1436 200.024 92.837 213.305C92.148 220.331 109.295 226.472 128.497 227.845C153.442 229.63 174.307 221.217 178.809 217.381C180.05 179.028 182.016 95.3091 182.016 88.195C172.685 81.5465 159.322 75.3227 153.127 72.6969C140.833 80.3147 132.042 77.7127 126.269 71.8179C117.592 73.4387 107.121 79.9482 103.07 82.4178Z" fill="#307FE2"/>
<path d="M103.07 82.4178C102.958 114.686 94.1436 200.024 92.837 213.305C92.148 220.331 109.295 226.472 128.497 227.845C153.442 229.63 174.307 221.217 178.809 217.381C180.05 179.028 182.016 95.3091 182.016 88.195C172.685 81.5465 159.322 75.3227 153.127 72.6969C140.833 80.3147 132.042 77.7127 126.269 71.8179C117.592 73.4387 107.121 79.9482 103.07 82.4178Z" fill="url(#paint1_linear_5_1475)"/>
<path d="M103.07 82.4178C102.958 114.686 94.1436 200.024 92.837 213.305C92.148 220.331 109.295 226.472 128.497 227.845C153.442 229.63 174.307 221.217 178.809 217.381C180.05 179.028 182.016 95.3091 182.016 88.195C172.685 81.5465 159.322 75.3227 153.127 72.6969C140.833 80.3147 132.042 77.7127 126.269 71.8179C117.592 73.4387 107.121 79.9482 103.07 82.4178Z" fill="#2773D9"/>
<path opacity="0.35" d="M125.044 72.0748C125.193 72.0403 125.341 72.0077 125.484 71.9756C126.321 77.3507 127.147 84.5628 127.432 91.9994C127.788 101.35 127.283 111.087 124.83 117.972C121.807 126.477 121.807 136.806 122.567 146.422C122.888 150.533 123.351 154.507 123.779 158.149V158.149V158.163C123.85 158.773 123.922 159.374 123.987 159.964C124.462 164.077 124.848 167.699 124.848 170.493C124.848 171.1 124.848 171.695 124.848 172.28C124.872 177.044 124.89 181.171 123.565 186.061C122.086 191.552 118.921 197.99 112.221 207.398C111.39 208.577 111.194 210.24 111.473 212.204C111.746 214.163 112.482 216.383 113.468 218.64C114.579 221.191 115.999 223.774 117.4 226.057C117.204 226.018 117.002 225.978 116.806 225.938C115.464 223.729 114.122 221.261 113.059 218.819C112.067 216.544 111.312 214.281 111.027 212.266C110.748 210.256 110.926 208.454 111.853 207.139V207.138C118.541 197.752 121.671 191.363 123.132 185.944C124.438 181.116 124.42 177.049 124.403 172.281V172.279C124.403 171.695 124.397 171.101 124.397 170.493C124.397 167.729 124.017 164.134 123.541 160.016C123.476 159.423 123.405 158.82 123.334 158.207V158.202V158.202C122.906 154.561 122.443 150.577 122.116 146.457C121.356 136.831 121.356 126.421 124.409 117.821C126.826 111.021 127.337 101.357 126.98 92.0161C126.701 84.6121 125.882 77.4303 125.044 72.0748Z" fill="white"/>
<path opacity="0.35" d="M96.4152 218.938C96.629 219.085 96.8487 219.231 97.0804 219.376C96.2014 217.289 95.5481 215.247 95.2927 213.43C95.0195 211.466 95.2095 209.803 96.041 208.624C102.741 199.217 105.906 192.778 107.391 187.287C108.71 182.398 108.692 178.27 108.674 173.506V173.496C108.668 172.915 108.668 172.323 108.668 171.719C108.668 168.925 108.288 165.304 107.813 161.191C107.742 160.6 107.67 159.999 107.599 159.389V159.375V159.375C107.171 155.733 106.708 151.759 106.387 147.648C105.627 138.032 105.627 127.703 108.656 119.198C111.103 112.313 111.608 102.576 111.252 93.2256C111.05 87.9597 110.581 82.8068 110.022 78.3386C109.88 78.4164 109.737 78.4942 109.601 78.572C110.147 82.9867 110.604 88.0601 110.8 93.2422C111.157 102.583 110.646 112.247 108.229 119.047C105.176 127.647 105.176 138.057 105.936 147.683C106.263 151.804 106.726 155.787 107.154 159.428V159.428V159.433C107.225 160.046 107.296 160.649 107.367 161.242C107.842 165.361 108.217 168.955 108.217 171.719C108.217 172.326 108.223 172.92 108.223 173.502V173.507C108.24 178.275 108.258 182.342 106.957 187.17C105.49 192.589 102.36 198.978 95.6728 208.364V208.365C94.7462 209.68 94.5681 211.482 94.8472 213.492C95.0848 215.18 95.6549 217.041 96.4152 218.938Z" fill="white"/>
<path opacity="0.35" d="M133.567 228.444C132.444 226.522 131.351 224.448 130.454 222.391C129.463 220.117 128.708 217.854 128.429 215.839C128.144 213.828 128.322 212.027 129.249 210.712V210.711C135.936 201.325 139.072 194.935 140.533 189.517C141.834 184.689 141.816 180.621 141.799 175.853V175.851C141.799 175.268 141.793 174.674 141.793 174.066C141.793 171.302 141.418 167.707 140.943 163.588C140.872 162.994 140.801 162.389 140.729 161.775V161.775C140.308 158.134 139.839 154.15 139.518 150.03C138.758 140.403 138.752 129.993 141.81 121.394C144.228 114.594 144.733 104.93 144.382 95.589C144.121 88.8128 143.414 82.2226 142.654 77.0476C142.802 77.0203 142.951 76.9906 143.093 76.9597C143.853 82.1525 144.572 88.7683 144.828 95.5718C145.184 104.923 144.679 114.66 142.232 121.544C139.209 130.049 139.203 140.379 139.963 149.994C140.29 154.106 140.753 158.08 141.175 161.721V161.721C141.246 162.336 141.317 162.942 141.389 163.537C141.864 167.65 142.244 171.271 142.244 174.066C142.244 174.672 142.244 175.268 142.25 175.853C142.268 180.616 142.286 184.744 140.967 189.634C139.482 195.124 136.322 201.563 129.617 210.97C128.785 212.149 128.595 213.813 128.869 215.776C129.148 217.735 129.884 219.956 130.864 222.213C131.797 224.352 132.949 226.514 134.119 228.502C133.935 228.483 133.751 228.464 133.567 228.444Z" fill="white"/>
<path opacity="0.35" d="M152.145 229.616C150.779 227.38 149.413 224.872 148.332 222.391C147.34 220.116 146.585 217.853 146.3 215.838C146.021 213.828 146.199 212.026 147.126 210.711V210.711C153.814 201.324 156.944 194.935 158.411 189.516C159.711 184.688 159.694 180.621 159.676 175.853C159.676 175.268 159.67 174.674 159.67 174.066C159.67 171.301 159.296 167.706 158.82 163.588C158.749 162.994 158.678 162.39 158.607 161.775V161.774C158.185 158.133 157.716 154.15 157.395 150.03C156.629 140.403 156.629 129.993 159.688 121.393C162.105 114.594 162.61 104.929 162.259 95.5887C161.98 88.329 161.184 81.2826 160.371 75.9622C160.531 76.0388 160.691 76.1166 160.858 76.195C161.659 81.4946 162.432 88.4294 162.705 95.5715C163.061 104.923 162.556 114.659 160.109 121.544C157.086 130.049 157.08 140.378 157.84 149.994C158.167 154.106 158.63 158.08 159.052 161.721V161.729C159.123 162.341 159.195 162.944 159.266 163.536C159.741 167.649 160.121 171.271 160.121 174.066C160.121 174.672 160.121 175.266 160.127 175.85V175.852C160.145 180.616 160.163 184.743 158.844 189.633C157.359 195.124 154.2 201.563 147.494 210.97C146.663 212.149 146.473 213.812 146.746 215.776C147.025 217.735 147.761 219.955 148.741 222.212C149.852 224.761 151.272 227.343 152.673 229.625C152.495 229.622 152.323 229.619 152.145 229.616Z" fill="white"/>
<path opacity="0.35" d="M170.284 228.718C169.109 226.72 167.95 224.545 167.012 222.391C166.02 220.116 165.266 217.853 164.987 215.838C164.702 213.828 164.886 212.026 165.806 210.711L165.812 210.711C172.5 201.324 175.63 194.935 177.091 189.516C178.392 184.688 178.38 180.621 178.362 175.853C178.356 175.268 178.356 174.674 178.356 174.066C178.356 171.301 177.976 167.706 177.501 163.588C177.43 162.995 177.364 162.391 177.293 161.778V161.775C176.865 158.133 176.402 154.15 176.075 150.03C175.315 140.403 175.309 129.993 178.368 121.393C180.785 114.594 181.296 104.929 180.94 95.5886C180.827 92.6819 180.637 89.8096 180.387 87.0686C180.554 87.1773 180.708 87.286 180.868 87.3947C181.1 90.0323 181.284 92.7858 181.385 95.5714C181.742 104.923 181.237 114.659 178.79 121.543C175.767 130.049 175.761 140.378 176.521 149.994C176.847 154.106 177.311 158.08 177.738 161.721C177.81 162.336 177.875 162.941 177.946 163.536C178.421 167.649 178.802 171.271 178.802 174.066C178.802 174.672 178.807 175.267 178.807 175.852C178.825 180.616 178.843 184.743 177.525 189.633C176.04 195.123 172.88 201.563 166.175 210.97C165.349 212.149 165.153 213.812 165.432 215.776C165.705 217.735 166.442 219.955 167.428 222.212C168.378 224.401 169.56 226.615 170.76 228.641C170.605 228.667 170.445 228.693 170.284 228.718Z" fill="white"/>
<path d="M114.159 18.3152C113.862 25.0747 114.159 41.5926 114.159 53.6922C114.159 74.1443 144.812 58.2857 149.498 50.0479C158.728 33.8228 148.524 19.1912 146.576 18.3152H114.159Z" fill="url(#paint2_linear_5_1475)"/>
<path d="M114.159 18.3152C113.862 25.0747 114.159 41.5926 114.159 53.6922C114.159 74.1443 144.812 58.2857 149.498 50.0479C158.728 33.8228 148.524 19.1912 146.576 18.3152H114.159Z" fill="#FCC4AC"/>
<path d="M149.985 12.3535C156.684 11.0813 155.704 16.5063 155.318 17.3894C171.325 21.7994 151.867 54.1319 149.48 54.8048L149.462 48.7717C149.438 46.3674 154.142 43.9175 151.57 39.6922C148.155 34.0831 147.413 45.1047 147.413 45.1047C144.99 43.829 144.111 34.6824 146.368 29.5069C138.444 33.0022 133.248 26.4909 132.244 24.6307C126.655 27.8801 118.09 26.5752 115.335 23.8995C114.895 25.3921 114.022 28.1705 114.022 33.036C107.631 29.5948 104.335 16.8911 107.714 18.0505C107.281 -7.24751 129.607 1.84799 132.244 4.85448C134.875 7.86097 135.499 7.01877 135.843 6.79367C145.251 2.20138 149.824 6.7521 148.945 9.65168C148.06 12.5513 149.723 12.4117 149.985 12.3535Z" fill="#6E000E"/>
<path d="M17.6765 125.481C12.887 125.906 8.72647 123.048 9.65775 122.725C22.1191 118.401 38.8722 123.787 48.5562 126.758C51.9547 133.626 46.3141 141.238 43.0695 144.185C41.4338 142.534 38.0513 140.398 35.833 140.398C24.5608 139.778 13.7125 155.952 2.68796 147.901C-6.13136 141.46 9.00564 130.27 17.6765 125.481Z" fill="#F4B88E"/>
<path d="M17.6765 125.481C12.887 125.906 8.72647 123.048 9.65775 122.725C22.1191 118.401 38.8722 123.787 48.5562 126.758C51.9547 133.626 46.3141 141.238 43.0695 144.185C41.4338 142.534 38.0513 140.398 35.833 140.398C24.5608 139.778 13.7125 155.952 2.68796 147.901C-6.13136 141.46 9.00564 130.27 17.6765 125.481Z" fill="#FCC4AC"/>
<path d="M103.069 82.4133C104.239 104.048 100.693 141.312 97.9966 160.274C95.1457 167.42 34.4713 145.17 36.0832 140.868C37.6957 136.566 41.7339 130.261 43.7277 125.197C45.0961 121.723 80.0188 138.09 81.31 132.219C82.6018 126.348 83.596 93.3554 103.069 82.4133Z" fill="#307FE2"/>
<path d="M103.069 82.4133C104.239 104.048 100.693 141.312 97.9966 160.274C95.1457 167.42 34.4713 145.17 36.0832 140.868C37.6957 136.566 41.7339 130.261 43.7277 125.197C45.0961 121.723 80.0188 138.09 81.31 132.219C82.6018 126.348 83.596 93.3554 103.069 82.4133Z" fill="url(#paint3_linear_5_1475)"/>
<path d="M103.069 82.4133C104.239 104.048 100.693 141.312 97.9966 160.274C95.1457 167.42 34.4713 145.17 36.0832 140.868C37.6957 136.566 41.7339 130.261 43.7277 125.197C45.0961 121.723 80.0188 138.09 81.31 132.219C82.6018 126.348 83.596 93.3554 103.069 82.4133Z" fill="#2773D9"/>
<path opacity="0.35" fill-rule="evenodd" clip-rule="evenodd" d="M100.167 84.0701C95.7895 95.859 94.5719 112.801 96.5497 125.65C97.5357 132.058 98.0642 137.686 97.2149 142.294C96.3715 146.885 94.1621 150.456 89.6583 152.774C87.9905 153.633 86.4481 153.526 84.8231 152.933C83.6144 152.492 82.3809 151.79 81.0255 151.019C80.5367 150.741 80.0318 150.454 79.5068 150.167C75.5607 148.009 70.6204 145.951 63.2431 148.221C57.4933 149.991 51.7844 148.15 47.2331 145.29C42.6764 142.426 39.3278 138.571 38.3009 136.394L37.8953 136.586C38.9685 138.862 42.3883 142.775 46.9943 145.67C51.6044 148.567 57.4517 150.473 63.375 148.651C70.5889 146.431 75.398 148.432 79.2912 150.561C79.7973 150.837 80.2908 151.118 80.7731 151.392C82.1403 152.17 83.4226 152.899 84.6693 153.355C86.3762 153.978 88.0547 154.105 89.8638 153.174C94.5125 150.782 96.7932 147.082 97.6544 142.375C98.5216 137.686 97.9752 131.99 96.9892 125.581C95.0233 112.796 96.2409 95.9333 100.588 84.2263L100.167 84.0701ZM90.8628 97.1461C91.0059 96.3876 91.1378 95.6892 91.2524 95.0608L90.8111 94.98C90.6971 95.6054 90.5659 96.3015 90.4227 97.0588C89.6512 101.151 88.5441 107.02 87.9632 113.024C87.2754 120.127 87.317 127.477 89.5573 132.314C92.1902 137.996 91.1247 141.924 88.752 143.863C86.3626 145.815 82.5596 145.832 79.5353 143.513C77.8984 142.258 75.2976 140.722 71.9193 140.268C68.5351 139.814 64.3918 140.448 59.6801 143.503C58.4756 144.284 56.5804 144.42 54.4155 144C52.2607 143.583 49.8838 142.625 47.7545 141.282C45.6241 139.938 43.7562 138.217 42.6051 136.282C41.4565 134.352 41.0247 132.217 41.7439 130.02L41.3175 129.88C40.5495 132.226 41.0193 134.496 42.2197 136.512C43.417 138.524 45.3444 140.292 47.5146 141.661C49.6866 143.032 52.1152 144.012 54.33 144.441C56.5346 144.867 58.5736 144.756 59.9242 143.88C64.5522 140.879 68.5885 140.273 71.8593 140.713C75.1355 141.153 77.6638 142.644 79.2621 143.87C82.426 146.295 86.4618 146.313 89.0359 144.211C91.6254 142.095 92.6476 137.915 89.9648 132.125C87.7797 127.409 87.7227 120.17 88.4099 113.067C88.9889 107.085 90.0913 101.239 90.8628 97.1461Z" fill="white"/>
<path d="M43.7276 125.197C41.7338 130.262 37.6956 136.566 36.0831 140.868C35.8075 141.605 37.3577 142.868 40.1319 144.42C44.5858 141.122 48.4369 130.501 49.8053 125.603C46.4205 124.687 44.0638 124.345 43.7276 125.197Z" fill="#105CC1"/>
<path d="M168.989 230.889C171.104 229.908 178.237 215.698 182.014 205.816L173.45 198.952C161.405 202.995 156.416 215.047 159.439 214.551C162.462 214.054 162.741 215.688 160.14 219.118C150.144 232.276 166.079 232.243 168.989 230.889Z" fill="#FCC4AC"/>
<path d="M207.304 157.191C212.631 139.628 195.312 98.8335 182.014 88.1956C182.014 92.539 181.182 112.639 180.731 139.326C188.363 153.001 169.547 194.601 167.789 198.11C166.025 201.619 181.396 214.735 183.909 209.66C186.421 204.584 201.311 176.939 207.304 157.191Z" fill="#307FE2"/>
<path d="M207.304 157.191C212.631 139.628 195.312 98.8335 182.014 88.1956C182.014 92.539 181.182 112.639 180.731 139.326C188.363 153.001 169.547 194.601 167.789 198.11C166.025 201.619 181.396 214.735 183.909 209.66C186.421 204.584 201.311 176.939 207.304 157.191Z" fill="url(#paint4_linear_5_1475)"/>
<path d="M207.304 157.191C212.631 139.628 195.312 98.8335 182.014 88.1956C182.014 92.539 181.182 112.639 180.731 139.326C188.363 153.001 169.547 194.601 167.789 198.11C166.025 201.619 181.396 214.735 183.909 209.66C186.421 204.584 201.311 176.939 207.304 157.191Z" fill="#2773D9"/>
<path opacity="0.35" fill-rule="evenodd" clip-rule="evenodd" d="M183.906 99.8414C183.187 98.9516 182.528 98.1368 181.958 97.4104L181.601 97.6872C182.177 98.4225 182.849 99.2445 183.573 100.139C185.907 103.019 188.859 106.654 191.354 110.586C194.632 115.746 197.091 121.359 196.402 126.387C195.951 129.632 196.658 133.02 197.81 136.402C198.606 138.745 199.615 141.103 200.607 143.419C201.047 144.441 201.486 145.455 201.896 146.455C203.244 149.735 204.337 152.875 204.515 155.763C204.687 158.638 203.951 161.258 201.629 163.518C197.162 167.876 196.242 171.82 195.357 175.583C195.244 176.074 195.131 176.562 195.006 177.048C194.484 179.147 193.83 181.199 192.423 183.275C191.015 185.35 188.847 187.463 185.278 189.665C183.888 190.521 182.629 192.132 181.554 194.056C180.473 195.986 179.558 198.254 178.875 200.455C178.186 202.655 177.723 204.796 177.545 206.472C177.456 207.309 177.432 208.039 177.497 208.606C177.515 208.784 177.545 208.95 177.586 209.1C175.977 208.184 174.284 206.929 172.769 205.575C171.95 201.855 172.324 197.393 173.732 193.467C175.145 189.513 177.58 186.141 180.829 184.603C183.846 183.177 185.438 181.381 186.293 179.336C187.137 177.306 187.244 175.049 187.321 172.731C187.327 172.636 187.327 172.542 187.333 172.447C187.404 170.206 187.481 167.903 188.17 165.617C188.883 163.242 190.255 160.879 192.981 158.643C195.689 156.424 196.604 154.174 196.432 151.89C196.271 149.63 195.048 147.378 193.599 145.142C193.141 144.436 192.66 143.733 192.185 143.029C191.134 141.486 190.077 139.941 189.263 138.375C188.075 136.101 187.422 133.832 187.998 131.535C190.938 119.815 183.799 112.248 181.554 110.162L181.245 110.491C183.46 112.546 190.439 119.953 187.558 131.426C186.947 133.879 187.659 136.268 188.865 138.582C189.691 140.173 190.772 141.754 191.829 143.309C192.31 144.007 192.779 144.701 193.225 145.387C194.674 147.62 195.832 149.788 195.986 151.922C196.141 154.032 195.321 156.149 192.702 158.295C189.898 160.589 188.479 163.029 187.743 165.488C187.036 167.831 186.959 170.187 186.881 172.416C186.881 172.516 186.875 172.616 186.875 172.716C186.792 175.045 186.685 177.221 185.878 179.164C185.076 181.093 183.567 182.812 180.639 184.198C177.242 185.805 174.741 189.299 173.31 193.316C171.873 197.335 171.481 201.916 172.348 205.743L172.366 205.813L172.419 205.861C174.177 207.441 176.185 208.897 178.038 209.859L178.275 209.477C178.21 209.433 178.139 209.344 178.079 209.184C178.02 209.026 177.972 208.817 177.943 208.556C177.883 208.035 177.901 207.341 177.99 206.52C178.162 204.88 178.62 202.768 179.303 200.589C179.98 198.409 180.883 196.171 181.946 194.276C183.009 192.374 184.221 190.843 185.515 190.047C189.12 187.82 191.342 185.666 192.797 183.527C194.246 181.387 194.917 179.276 195.446 177.157C195.565 176.666 195.683 176.175 195.796 175.682C196.675 171.929 197.572 168.103 201.943 163.839C204.373 161.473 205.139 158.719 204.961 155.736C204.782 152.767 203.66 149.567 202.312 146.285C201.896 145.27 201.456 144.249 201.011 143.222C200.025 140.915 199.021 138.584 198.231 136.257C197.091 132.901 196.408 129.592 196.842 126.448C197.56 121.251 195.018 115.519 191.734 110.346C189.221 106.388 186.246 102.723 183.906 99.8414Z" fill="white"/>
<path d="M176.188 177.336C180.916 163.689 185.044 147.052 180.732 139.327C192.314 147.447 183.517 165.616 176.188 177.336Z" fill="#105CC1"/>
<path d="M167.789 198.11C166.025 201.62 181.396 214.735 183.909 209.66C184.105 209.269 184.372 208.744 184.698 208.099C181.016 207.276 172.725 203.612 168.983 195.534C168.407 196.821 167.985 197.712 167.789 198.11Z" fill="#307FE2"/>
<path d="M167.789 198.11C166.025 201.62 181.396 214.735 183.909 209.66C184.105 209.269 184.372 208.744 184.698 208.099C181.016 207.276 172.725 203.612 168.983 195.534C168.407 196.821 167.985 197.712 167.789 198.11Z" fill="url(#paint5_linear_5_1475)"/>
<path d="M167.789 198.11C166.025 201.62 181.396 214.735 183.909 209.66C184.105 209.269 184.372 208.744 184.698 208.099C181.016 207.276 172.725 203.612 168.983 195.534C168.407 196.821 167.985 197.712 167.789 198.11Z" fill="#105CC1"/>
<defs>
<linearGradient id="paint0_linear_5_1475" x1="132.268" y1="66.7843" x2="141.961" y2="71.7348" gradientUnits="userSpaceOnUse">
<stop stop-color="#F3AD8F"/>
<stop offset="1" stop-color="#FCC4AC" stop-opacity="0"/>
</linearGradient>
<linearGradient id="paint1_linear_5_1475" x1="167.613" y1="196.447" x2="143.369" y2="184.047" gradientUnits="userSpaceOnUse">
<stop stop-color="#026CF0"/>
<stop offset="1" stop-color="#307FE2" stop-opacity="0"/>
</linearGradient>
<linearGradient id="paint2_linear_5_1475" x1="111.041" y1="45.9467" x2="130.136" y2="48.0831" gradientUnits="userSpaceOnUse">
<stop stop-color="#FEA568"/>
<stop offset="1" stop-color="#F4B88E"/>
</linearGradient>
<linearGradient id="paint3_linear_5_1475" x1="75.6682" y1="160.38" x2="76.922" y2="149.993" gradientUnits="userSpaceOnUse">
<stop stop-color="#0154F7"/>
<stop offset="1" stop-color="#307FE2" stop-opacity="0"/>
</linearGradient>
<linearGradient id="paint4_linear_5_1475" x1="206.318" y1="160.785" x2="197.67" y2="157.135" gradientUnits="userSpaceOnUse">
<stop stop-color="#0071FF"/>
<stop offset="1" stop-color="#307FE2" stop-opacity="0"/>
</linearGradient>
<linearGradient id="paint5_linear_5_1475" x1="206.318" y1="160.786" x2="197.67" y2="157.135" gradientUnits="userSpaceOnUse">
<stop stop-color="#0071FF"/>
<stop offset="1" stop-color="#307FE2" stop-opacity="0"/>
</linearGradient>
</defs>
</svg>
