<svg width="278" height="272" viewBox="0 0 278 272" fill="none" xmlns="http://www.w3.org/2000/svg">
<circle cx="175.635" cy="130.633" r="96.4193" fill="white"/>
<circle cx="175.635" cy="130.633" r="95.4193" stroke="#FFAF2E" stroke-opacity="0.6" stroke-width="2"/>
<mask id="mask0_5_1390" style="mask-type:alpha" maskUnits="userSpaceOnUse" x="0" y="0" width="278" height="272">
<path d="M272.055 130.633C272.055 77.3819 228.887 0.000244141 175.636 0.000244141C126.163 0.000244141 85.3934 66.7902 79.8567 118.969C30.7322 112.749 -35.0862 88.6438 24.7867 133.743C48.5378 151.634 63.1553 177.547 91.6707 178.065C108.229 207.313 139.627 227.052 175.636 227.052C202.135 227.052 226.137 216.362 243.566 199.059L238.991 242.234C238.991 325.435 294.847 210.257 272.055 130.633Z" fill="#C4C4C4"/>
</mask>
<g mask="url(#mask0_5_1390)">
<path d="M171.097 78.5015C145.151 99.1984 147.796 143.2 146.229 167.151C145.128 183.906 141.68 207.917 139.49 221.659L188.103 228.817V144.576C188.103 116.496 190.057 81.9856 197.717 74.5523C192.382 73.9613 187.67 74.1128 184.441 74.5523C181.88 74.5318 178.673 74.9636 175.163 76.3843C173.619 77.3 172.484 77.7101 171.097 78.5015Z" fill="white"/>
<path opacity="0.5" d="M171.097 78.501C145.151 99.1979 147.796 143.199 146.229 167.15C145.128 183.905 141.68 207.917 139.49 221.658C157.977 228.461 166.079 230.082 188.103 228.816V144.576C188.103 122.869 189.271 97.3188 193.342 83.4058C188.962 90.4272 182.891 124.316 183.817 144.576C184.744 164.836 184.126 204.304 178.258 215.295C172.383 226.286 142.107 218.042 144.887 209.494C147.667 200.945 147.667 173.163 150.138 141.107C152.115 115.462 164.936 88.684 171.097 78.501Z" fill="#FFB83B"/>
<path d="M178.26 215.295C172.385 226.286 142.109 218.043 144.889 209.494C151.993 220.485 168.987 217.127 171.767 212.853C174.547 208.579 178.877 197.893 178.877 179.88C178.877 165.47 182.584 137.851 184.437 125.843C183.831 132.552 183.567 139.068 183.819 144.576C184.746 164.836 184.128 204.304 178.26 215.295Z" fill="#FFF9EF"/>
<path d="M150.137 141.108C151.687 121.07 159.847 100.339 166.283 87.3748C162.65 95.2109 155.456 115.463 155.703 133.78C155.95 152.098 150.424 174.996 147.627 184.155C148.284 172.127 148.902 157.153 150.137 141.108Z" fill="#FFF9EF"/>
<path d="M134.689 254.984L123.873 253.458C125.524 242.158 136.975 186.962 141.721 150.633C142.754 142.707 143.827 134.415 144.916 125.856C149.123 92.7064 163.685 82.9329 175.159 76.3843C149.213 97.0812 147.792 143.2 146.225 167.151C145.124 183.906 141.676 207.917 139.486 221.659C139.171 223.631 134.942 253.487 134.689 254.984Z" fill="#FFAF2E"/>
<path d="M141.721 150.632C142.754 142.707 143.827 134.415 144.916 125.856C144.596 136.232 143.827 153.281 141.721 170.721C137.761 203.525 133.454 233.307 123.873 253.457C125.524 242.157 136.975 186.962 141.721 150.632Z" fill="#F3A00D"/>
<path d="M238.502 254.068C233.251 231.171 225.523 141.108 225.523 141.108C225.523 141.108 231.752 109.326 221.508 93.7863C214.96 83.8463 197.718 74.5522 197.718 74.5522C190.058 81.9855 188.103 116.496 188.103 144.576V228.816V258.037C201.425 260.784 223.67 262.006 238.502 254.068Z" fill="#FFAF2E"/>
<path d="M191.995 88.9014C189.007 103.407 188.103 125.479 188.103 144.576V216.516C189.401 205.933 191.72 178.17 190.614 151.793C189.507 125.415 191.074 98.8741 191.995 88.9014Z" fill="#F9A319"/>
<path d="M238.502 254.068C233.251 231.171 225.523 141.108 225.523 141.108C225.523 141.108 231.752 109.326 221.508 93.7861C221.508 110.272 213.477 132.559 218.11 154.846C224.344 184.817 229.539 212.242 223.67 233.002C218.975 249.611 197.999 256.612 188.103 258.037C201.425 260.784 223.67 262.006 238.502 254.068Z" fill="#F9A319"/>
<path d="M272.793 164.31C274.646 145.382 256.113 117.6 235.103 96.8394C225.758 87.6059 206.68 76.6897 197.716 74.5525L225.522 141.108C225.522 141.108 234.159 150.633 245.15 167.151C248.553 159.718 262.908 154.846 272.793 164.31Z" fill="#FFAF2E"/>
<path d="M272.794 164.31C274.647 145.381 256.108 117.599 235.104 96.839C230.224 92.0185 222.692 86.7391 215.33 82.4897C217.7 86.5604 222.805 95.8622 224.287 100.502C226.141 106.303 265.998 129.49 262.6 159.265C266.122 159.768 269.677 161.327 272.794 164.31Z" fill="#F9A319"/>
<path d="M241.844 159.262C242.428 153.498 247.92 150.136 251.812 149.175C260.562 147.014 269.307 149.656 273.681 156.14C277.5 161.795 273.199 170.07 269.307 173.192C270.037 162.384 265.909 158.542 256.912 159.983C247.92 161.424 245.247 166.948 244.764 171.751C242.574 170.07 241.114 166.467 241.844 159.262Z" fill="#F9A319"/>
<path d="M256.911 159.983C247.919 161.424 245.246 166.948 244.757 171.751C245.572 181.758 247.043 205.279 246.459 219.305C245.734 236.837 244.757 242.841 241.601 250.526C238.439 258.212 242.618 266.195 248.694 264.754C254.771 263.312 259.73 256.29 258.275 250.526C256.815 244.762 258.275 238.998 260.701 234.915C263.133 230.832 269.305 195.768 269.305 173.192C270.035 162.384 265.902 158.542 256.911 159.983Z" fill="#FFD0B7"/>
<path d="M144.919 125.856C149.126 92.7064 163.688 82.9329 175.162 76.3843C165.57 81.4911 143.942 87.3748 128.166 115.12C114.766 138.685 104.584 144.891 100.4 145.992C105.455 150.672 114.21 164.745 113.373 173.774C118.815 169.81 134.411 156.506 141.723 150.633C142.757 142.707 143.83 134.415 144.919 125.856Z" fill="#FFAF2E"/>
<path d="M141.722 150.632C142.755 142.707 143.828 134.415 144.917 125.856C141.935 140.829 130.675 149.656 124.497 151.793C119.549 153.502 114.573 162.886 112.709 167.363C113.287 169.638 113.551 171.824 113.371 173.775C118.813 169.81 134.409 156.506 141.722 150.632Z" fill="#F9A319"/>
<path d="M108.629 160.666C105.17 149.978 100.093 146.654 97.9251 146.298C98.6496 145.585 100.57 143.939 102.951 143.298C105.922 142.496 114.307 143.298 118.093 149.444C121.299 154.648 124.854 163.071 118.093 171.355C112.684 177.981 101.059 177.322 95.9202 176.164C101.598 175.452 111.746 170.286 108.629 160.666Z" fill="#F9A319"/>
<path d="M95.9187 176.164C101.597 175.452 111.745 170.286 108.628 160.666C106.14 152.98 102.871 147.519 97.9236 146.297C96.7555 146.728 94.4585 147.68 85.3716 143.832C74.0158 139.023 36.9697 122.188 34.2655 119.784C31.5614 117.379 25.6128 109.096 17.2302 109.363C8.84755 109.63 11.8218 124.86 21.8269 127.533C31.8321 130.205 40.2147 137.419 45.0816 142.764C49.9491 148.107 76.1781 174.027 95.9187 176.164Z" fill="#FFD0B7"/>
<path d="M174.902 76.3958V59.8217L197.715 48.9072V74.5522C187.544 93.2868 173.976 88.5185 174.902 76.3958Z" fill="#FFD0B7"/>
<path d="M177.425 58.6158L197.716 48.9072V74.5522C197.699 74.5894 197.677 74.626 197.66 74.6632C196.638 76.529 195.588 78.1595 194.515 79.5713C190.741 73.9556 180.761 65.2415 174.903 60.8895V60.0288L177.425 58.6158Z" fill="url(#paint0_linear_5_1390)"/>
<path d="M163.58 18.0428C163.58 27.7703 168.516 28.9534 172.15 28.4401L194.367 52.3153C194.626 52.8286 197.114 54.9453 197.114 59.94C197.114 65.0052 201.146 54.493 204.134 52.3153C210.323 47.8073 214.529 47.6736 216.489 40.2387C218.174 33.8566 215.798 29.3386 213.85 28.4401C212.682 27.9268 211.435 26.8229 209.565 26.5149C207.694 26.2064 207.223 23.0492 207.223 21.5086C207.093 20.3537 206.588 18.7471 203.606 16.8874C201.753 15.7325 196.962 15.2186 195.142 16.8874C193.974 17.5295 191.323 18.1971 190.077 15.7325C188.83 13.2679 186.179 14.1919 185.011 14.9616C181.585 16.1937 173.638 12.5747 170.549 3.11035C166.843 7.99516 163.58 11.3533 163.58 18.0428Z" fill="#2B2B39"/>
<path d="M213.851 28.4404C212.683 27.9265 211.436 26.8227 209.566 26.5146C219.203 33.6016 211.436 44.9562 205.258 48.0085C200.316 50.4503 197.772 56.9801 197.115 59.9403C197.115 65.0049 201.147 54.4927 204.135 52.315C210.324 47.807 214.53 47.6733 216.49 40.239C218.175 33.8569 215.8 29.3383 213.851 28.4404Z" fill="#13131C"/>
<path d="M185.013 14.9617C181.587 16.1937 173.641 12.5742 170.552 3.11035C170.608 8.80319 173.416 19.7599 184.199 18.0428C185.884 17.4851 187.849 16.3751 190.096 18.595C192.342 20.8149 198.026 15.7319 203.608 16.8874C201.755 15.7319 196.964 15.218 195.145 16.8874C193.977 17.5289 191.326 18.1965 190.079 15.7319C188.832 13.2673 186.187 14.1914 185.013 14.9617Z" fill="#13131C"/>
<path d="M183.458 60.7871C192.5 58.0145 196.055 51.6734 196.707 48.8498C196.971 47.6943 197.616 44.4855 197.487 43.0737C196.549 40.3011 193.719 44.2286 192.421 46.5394C190.686 49.6201 190.372 38.8376 192.421 36.1422C195.224 32.445 190.86 31.466 188.911 30.3661C188.002 29.8522 185.486 28.9798 182.678 29.5958C179.869 30.2118 178.392 28.5685 177.999 27.67C176.96 26.0018 174.259 23.6654 171.765 27.67C165.84 36.6044 166.958 48.3364 168.261 53.0858C169.558 56.808 174.416 63.5597 183.458 60.7871Z" fill="#FFD0B7"/>
</g>
<defs>
<linearGradient id="paint0_linear_5_1390" x1="178.728" y1="50.3508" x2="182.601" y2="74.2354" gradientUnits="userSpaceOnUse">
<stop stop-color="#F4AF8A"/>
<stop offset="1" stop-color="#F9C0A1" stop-opacity="0"/>
</linearGradient>
</defs>
</svg>
