<svg width="91" height="37" viewBox="0 0 91 37" fill="none" xmlns="http://www.w3.org/2000/svg">
<path d="M83.8907 0.130127H7.03696C3.64204 0.130127 0.889771 2.88182 0.889771 6.27674V23.6992C0.889771 27.0935 3.64204 29.8458 7.03696 29.8458H69.6678L88.8394 36.0768L83.5671 29.8458H83.8907C87.2851 29.8458 90.0374 27.0935 90.0374 23.6992V6.27674C90.0374 2.88182 87.2851 0.130127 83.8907 0.130127Z" fill="#FFBE56"/>
<path fill-rule="evenodd" clip-rule="evenodd" d="M21.4993 17.3847C23.0874 17.3847 24.3751 16.0971 24.3751 14.5089C24.3751 12.9207 23.0874 11.6331 21.4993 11.6331C19.9111 11.6331 18.624 12.9207 18.624 14.5089C18.624 16.0971 19.9111 17.3847 21.4993 17.3847ZM37.795 17.3847C39.3832 17.3847 40.6708 16.0971 40.6708 14.5089C40.6708 12.9207 39.3832 11.6331 37.795 11.6331C36.2068 11.6331 34.9192 12.9207 34.9192 14.5089C34.9192 16.0971 36.2068 17.3847 37.795 17.3847ZM56.4873 14.5089C56.4873 16.0971 55.1996 17.3847 53.6115 17.3847C52.0233 17.3847 50.7356 16.0971 50.7356 14.5089C50.7356 12.9207 52.0233 11.6331 53.6115 11.6331C55.1996 11.6331 56.4873 12.9207 56.4873 14.5089ZM69.4279 17.3847C71.0161 17.3847 72.3037 16.0971 72.3037 14.5089C72.3037 12.9207 71.0161 11.6331 69.4279 11.6331C67.8397 11.6331 66.552 12.9207 66.552 14.5089C66.552 16.0971 67.8397 17.3847 69.4279 17.3847Z" fill="white"/>
</svg>
