<svg width="34" height="21" viewBox="0 0 34 21" fill="none" xmlns="http://www.w3.org/2000/svg">
<path fill-rule="evenodd" clip-rule="evenodd" d="M17.1934 10.7498C19.837 10.7498 21.98 8.60676 21.98 5.96322C21.98 3.31967 19.837 1.17664 17.1934 1.17664C14.5499 1.17664 12.4069 3.31967 12.4069 5.96322C12.4069 8.60676 14.5499 10.7498 17.1934 10.7498Z" fill="white"/>
<path fill-rule="evenodd" clip-rule="evenodd" d="M21.3476 10.2141C20.2714 11.2402 18.8064 11.8716 17.1924 11.8716C15.5784 11.8716 14.1134 11.2402 13.0372 10.2141C12.8519 10.1682 12.6665 10.1228 12.4865 10.0998C12.3066 10.0768 12.1324 10.0768 11.9701 10.1019C11.8083 10.1265 11.6587 10.1767 11.4841 10.2392C11.3094 10.3012 11.1102 10.376 10.8608 10.5255C10.6119 10.6751 10.3123 10.8994 10.026 11.2739C9.73919 11.6472 9.4652 12.1713 9.21578 12.7946C8.96636 13.4174 8.74204 14.1407 8.6176 14.8388C8.49316 15.5364 8.46805 16.21 8.45577 16.7207C8.44295 17.2319 8.44295 17.5812 8.49316 17.9177C8.54283 18.2542 8.64217 18.5779 8.86702 18.9022C9.09134 19.2264 9.4401 19.5506 9.85135 19.7996C10.2626 20.049 10.7363 20.2237 11.3847 20.3107C12.0326 20.3978 12.8551 20.3978 13.8522 20.3978H16.7438H17.1924H17.641H20.5326C21.5298 20.3978 22.3523 20.3978 23.0001 20.3107C23.6485 20.2237 24.1222 20.049 24.5335 19.7996C24.9447 19.5506 25.2935 19.2264 25.5178 18.9022C25.7427 18.5779 25.842 18.2542 25.8917 17.9177C25.9419 17.5812 25.9419 17.2319 25.9291 16.7207C25.9168 16.21 25.8917 15.5364 25.7672 14.8388C25.6428 14.1407 25.4185 13.4174 25.169 12.7946C24.9196 12.1713 24.6456 11.6472 24.3588 11.2739C24.0726 10.8994 23.7729 10.6751 23.524 10.5255C23.2746 10.376 23.0754 10.3012 22.9008 10.2392C22.7261 10.1767 22.5766 10.1265 22.4147 10.1019C22.2524 10.0768 22.0783 10.0768 21.8983 10.0998C21.7183 10.1228 21.533 10.1682 21.3476 10.2141Z" fill="white"/>
<path fill-rule="evenodd" clip-rule="evenodd" d="M22.2929 8.32214C23.1436 9.0988 24.2763 9.57314 25.519 9.57314C28.1618 9.57314 30.3043 7.4301 30.3043 4.78655C30.3043 2.14301 28.1618 -3.05176e-05 25.519 -3.05176e-05C23.8218 -3.05176e-05 22.3303 0.884 21.4812 2.21672C22.4392 3.09167 23.0406 4.35228 23.0406 5.75231C23.0406 6.69777 22.7661 7.58019 22.2929 8.32214Z" fill="white"/>
<path fill-rule="evenodd" clip-rule="evenodd" d="M11.707 8.32214C10.8563 9.0988 9.7236 9.57314 8.48092 9.57314C5.83804 9.57314 3.69554 7.4301 3.69554 4.78655C3.69554 2.14301 5.83804 -3.05176e-05 8.48092 -3.05176e-05C10.1781 -3.05176e-05 11.6696 0.884 12.5187 2.21672C11.5606 3.09167 10.9593 4.35228 10.9593 5.75231C10.9593 6.69777 11.2338 7.58019 11.707 8.32214Z" fill="white"/>
<path fill-rule="evenodd" clip-rule="evenodd" d="M29.4096 9.21419C28.3651 10.2093 26.9551 10.8338 25.3976 10.8701L25.5696 11.0763C25.8565 11.4496 26.1306 11.9737 26.3802 12.597C26.6297 13.2198 26.8541 13.9431 26.9786 14.6412C27.1031 15.3388 27.1282 16.0124 27.1405 16.5231C27.1533 17.0343 27.1533 17.3836 27.1031 17.7201C27.0534 18.0566 26.954 18.3803 26.729 18.7046C26.5618 18.946 26.3257 19.188 26.0462 19.3979H28.5943C29.5918 19.3979 30.4146 19.3979 31.0627 19.3108C31.7113 19.2238 32.1853 19.0491 32.5967 18.7996C33.0081 18.5507 33.357 18.2265 33.5814 17.9023C33.8063 17.578 33.9057 17.2543 33.9554 16.9178C34.0056 16.5813 34.0056 16.232 33.9928 15.7208C33.9805 15.2101 33.9554 14.5365 33.8309 13.8389C33.7064 13.1408 33.482 12.4175 33.2325 11.7947C32.983 11.1713 32.7089 10.6473 32.422 10.274C32.1356 9.89952 31.8358 9.67517 31.5869 9.52561C31.3373 9.37604 31.138 9.30126 30.9633 9.2393C30.7886 9.1768 30.639 9.12659 30.4771 9.10202C30.3147 9.07692 30.1405 9.07692 29.9605 9.09988C29.7804 9.12285 29.595 9.16826 29.4096 9.21419Z" fill="white"/>
<path fill-rule="evenodd" clip-rule="evenodd" d="M4.59028 9.21419C5.63482 10.2093 7.04483 10.8338 8.60229 10.8701L8.43025 11.0763C8.14334 11.4496 7.86924 11.9737 7.61973 12.597C7.37021 13.2198 7.14581 13.9431 7.02132 14.6412C6.89683 15.3388 6.87171 16.0124 6.85943 16.5231C6.8466 17.0343 6.8466 17.3836 6.89683 17.7201C6.94652 18.0566 7.04589 18.3803 7.27083 18.7046C7.43807 18.946 7.67423 19.188 7.95366 19.3979H5.40561C4.40808 19.3979 3.58527 19.3979 2.93717 19.3108C2.28854 19.2238 1.81462 19.0491 1.40321 18.7996C0.991804 18.5507 0.64291 18.2265 0.418506 17.9023C0.193567 17.578 0.0941887 17.2543 0.0444994 16.9178C-0.00572395 16.5813 -0.00572395 16.232 0.00709915 15.7208C0.0193872 15.2101 0.0444994 14.5365 0.16899 13.8389C0.293481 13.1408 0.517884 12.4175 0.7674 11.7947C1.01692 11.1713 1.29101 10.6473 1.57792 10.274C1.86431 9.89952 2.16405 9.67517 2.41303 9.52561C2.66254 9.37604 2.86183 9.30126 3.03655 9.2393C3.21126 9.1768 3.36087 9.12659 3.52276 9.10202C3.68518 9.07692 3.85936 9.07692 4.03942 9.09988C4.21948 9.12285 4.40488 9.16826 4.59028 9.21419Z" fill="white"/>
</svg>
